<?xml version="1.0" encoding="utf-8"?>
<!-- Generator: Adobe Illustrator 26.3.1, SVG Export Plug-In . SVG Version: 6.00 Build 0)  -->
<svg version="1.1" id="Layer_1" xmlns="http://www.w3.org/2000/svg" xmlns:xlink="http://www.w3.org/1999/xlink" x="0px" y="0px"
	 width="418.8px" height="81.5px" viewBox="0 0 418.8 81.5" style="enable-background:new 0 0 418.8 81.5;" xml:space="preserve">
<style type="text/css">
	.st0{fill:#FFFFFF;}
	.st1{clip-path:url(#SVGID_00000148620665665365812060000017188668337922010295_);}
	.st2{fill:url(#SVGID_00000071560477406871186660000012669520662814886023_);}
	.st3{clip-path:url(#SVGID_00000178927614092417011130000013451839397465181874_);}
	.st4{fill:none;stroke:#FFFFFF;stroke-width:1.08;}
</style>
<polygon class="st0" points="120,5.7 136.1,5.7 136.1,9.9 124.9,9.9 124.9,17 133.9,17 133.9,21.2 124.9,21.2 124.9,28.4 
	136.7,28.4 136.7,32.6 120,32.6 "/>
<path class="st0" d="M139.7,13.3h4.6v2.2c0,0.4,0,0.9-0.1,1.3h0.1c1.3-2.5,4-4.1,6.9-4c4.3,0,6.7,2.2,6.7,7.4v12.4h-4.8V21.2
	c0-2.4-0.6-3.9-3.1-3.9c-2.4,0-4.6,1.6-5.2,3.9c-0.2,0.8-0.4,1.7-0.3,2.6v8.9h-4.8L139.7,13.3z"/>
<path class="st0" d="M173.8,20.6c-0.1-2.6-1.7-4-3.8-4c-2.3-0.1-4.4,1.7-4.6,4H173.8z M170,12.8c5.6,0,8.6,4.1,8.6,9.2
	c0,0.6-0.1,1.9-0.1,1.9h-13.3c0.2,3,2.8,5.3,5.8,5.1c0,0,0,0,0,0c2-0.1,4-0.8,5.6-2.1l1.9,3.5c-2.2,1.8-4.9,2.8-7.8,2.8
	c-6.4,0-10.4-4.6-10.4-10.1c0-6,4.1-10.1,9.8-10.1"/>
<path class="st0" d="M181.3,13.3h4.6v3.3c0,0.7-0.1,1.4-0.1,1.4h0.1c0.7-2.8,3.2-4.8,6.1-5c0.3,0,0.6,0,0.9,0.1v4.7
	c-0.4,0-0.8-0.1-1.1-0.1c-2.5,0-4.6,1.7-5.3,4.1c-0.3,1-0.5,2.1-0.5,3.2v7.7h-4.8L181.3,13.3z"/>
<path class="st0" d="M207.7,22.5c0-4.4-2.2-5.6-4.8-5.6c-2.9,0-4.6,2.1-4.6,5.4s1.8,5.9,4.9,5.9C205.6,28.2,207.7,26.9,207.7,22.5
	 M202.2,36.5c3,0,5.5-1.2,5.5-4.7v-1.1c0-0.3,0-0.7,0.1-1h-0.1c-1.2,1.8-3.3,2.8-5.4,2.6c-5.5,0-8.7-4.5-8.7-9.8s3-9.6,8.6-9.6
	c4.2,0,5.7,2.5,5.7,2.5h0.2c0-0.2,0-0.4,0-0.5v-1.5h4.5v18.2c0,6.6-5.1,9.1-10.2,9.1c-2.4,0-4.7-0.6-6.9-1.7l1.4-3.7
	C198.6,36,200.4,36.5,202.2,36.5"/>
<path class="st0" d="M215.4,35.7c0.6,0.5,1.4,0.7,2.2,0.8c1.5-0.1,2.9-1.1,3.3-2.5l0.7-1.7l-8.2-19h5.4l4,11.1
	c0.3,0.9,0.5,1.7,0.7,2.6h0.1c0.2-0.9,0.4-1.7,0.6-2.5l3.8-11.2h5.3l-8.6,22.2c-1,3-3.8,5.1-7,5c-1.4,0-2.8-0.5-4-1.2L215.4,35.7z"
	/>
<rect x="243.5" y="5.7" class="st0" width="4.9" height="26.9"/>
<path class="st0" d="M253.1,13.3h4.6v2.2c0,0.4,0,0.9-0.1,1.3h0.1c1.3-2.5,4-4.1,6.9-4c4.3,0,6.7,2.2,6.7,7.4v12.4h-4.8V21.2
	c0-2.4-0.6-3.9-3.1-3.9c-2.4,0-4.6,1.6-5.2,3.9c-0.3,0.8-0.4,1.7-0.3,2.6v8.9h-4.8L253.1,13.3z"/>
<path class="st0" d="M275,13.3h4.6v2.2c0,0.4,0,0.9-0.1,1.3h0.1c1.3-2.5,4-4.1,6.9-4c4.3,0,6.7,2.2,6.7,7.4v12.4h-4.8V21.2
	c0-2.4-0.6-3.9-3.1-3.9c-2.4,0-4.6,1.6-5.2,3.9c-0.2,0.8-0.4,1.7-0.3,2.6v8.9H275V13.3z"/>
<path class="st0" d="M306.2,29c3.2,0,5.7-2.6,5.7-5.8c0-0.1,0-0.2,0-0.2c0.1-3.2-2.3-5.9-5.5-6c-3.2-0.1-5.9,2.3-6,5.5
	c0,0.2,0,0.3,0,0.5c-0.1,3.2,2.3,5.9,5.5,6c0,0,0,0,0,0H306.2 M306.2,12.9c5.8,0,10.6,4.1,10.6,10.1s-4.8,10.1-10.6,10.1
	s-10.6-4.2-10.6-10.1S300.2,12.9,306.2,12.9"/>
<path class="st0" d="M316.7,13.3h5.1l4,12c0.4,1.1,0.6,2.9,0.7,2.9h0.1c0.2-1,0.4-2,0.7-2.9l4-12h5.1l-6.9,19.3h-5.7L316.7,13.3z"/>
<path class="st0" d="M343.8,29.3c2.5,0,4.4-2.7,4.4-5.1v-0.5h-0.8c-2.5,0-6.5,0.3-6.5,3C340.9,28.1,341.9,29.3,343.8,29.3
	 M347.5,20.5h0.6v-0.3c0-2.5-1.6-3.4-3.7-3.4c-1.9,0.1-3.7,0.8-5.3,1.9l-1.8-3.4c2.2-1.6,4.9-2.4,7.6-2.4c5.1,0,8,2.8,8,7.7v12.1
	h-4.4V31c0-0.5,0-0.9,0.1-1.4h-0.1c-1.1,2.2-3.4,3.5-5.9,3.4c-3.5,0-6.6-2.2-6.6-6C336,20.9,344.3,20.5,347.5,20.5"/>
<path class="st0" d="M357.3,17.4h-2.5v-3.8h2.6V8h4.7v5.6h4.4v3.8h-4.4v7.5c0,3.2,2.5,3.6,3.8,3.6c0.3,0,0.6,0,0.9-0.1v4.2
	c-0.5,0.1-1,0.1-1.5,0.1c-2.7,0-8-0.8-8-7.3L357.3,17.4z"/>
<path class="st0" d="M369.4,13.3h4.8v19.4h-4.8V13.3z M369.4,5.7h4.8V10h-4.8V5.7z"/>
<path class="st0" d="M387.5,29c3.2,0,5.7-2.6,5.7-5.8c0-0.1,0-0.2,0-0.2c0.2-3.2-2.2-5.9-5.4-6.1c-3.2-0.2-5.9,2.2-6.1,5.4
	c0,0.2,0,0.5,0,0.7c-0.1,3.2,2.3,5.9,5.5,6c0,0,0,0,0,0H387.5 M387.5,12.9c5.9,0,10.6,4.1,10.6,10.1s-4.7,10.1-10.6,10.1
	s-10.6-4.2-10.6-10.1S381.5,12.9,387.5,12.9"/>
<path class="st0" d="M400.6,13.3h4.6v2.2c0,0.4,0,0.9-0.1,1.3h0.1c1.3-2.5,4-4.1,6.9-4c4.3,0,6.7,2.2,6.7,7.4v12.4H414V21.2
	c0-2.4-0.6-3.9-3.1-3.9c-2.4,0-4.6,1.6-5.2,3.9c-0.2,0.8-0.4,1.7-0.3,2.6v8.9h-4.8L400.6,13.3z"/>
<path class="st0" d="M122.8,68c1.8,1.7,4.2,2.7,6.7,2.8c2,0,3.9-1.1,3.9-3.3c0-4.8-12.7-4-12.7-12.2c0-4.5,3.9-7.8,9-7.8
	c2.9-0.1,5.8,0.9,8,2.9l-2.1,4c-1.7-1.4-3.8-2.3-6-2.4c-2.3,0-4.1,1.3-4.1,3.2c0,4.8,12.7,3.6,12.7,12.2c0,4.3-3.3,7.9-8.9,7.9
	c-3.5,0-6.8-1.3-9.3-3.7L122.8,68z"/>
<path class="st0" d="M140.8,55.5h4.8V67c0,2.3,0.6,4,3,4c3.5,0,5.4-3.1,5.4-6.5v-8.9h4.8v19.3h-4.6v-2.2c0-0.5,0-0.9,0.1-1.4h-0.1
	c-1.3,2.5-3.9,4-6.7,4c-4.1,0-6.7-2.1-6.7-7.3L140.8,55.5z"/>
<path class="st0" d="M162.8,55.5h4.6v2.2c0,0.4,0,0.9-0.1,1.3h0.1c1.2-2.4,3.6-3.9,6.3-4c3,0,4.9,1.4,5.6,4h0.1c1.3-2.4,3.8-4,6.6-4
	c4,0,6.3,2.3,6.3,7.4v12.4h-4.8V63.3c0-2.2-0.4-3.9-2.7-3.9c-2.5,0-4.1,2-4.7,4.4c-0.2,0.8-0.3,1.7-0.2,2.5v8.5h-4.8V63.3
	c0-2.1-0.3-3.9-2.6-3.9c-2.5,0-4.1,2-4.7,4.4c-0.2,0.8-0.3,1.6-0.2,2.5v8.5h-4.8L162.8,55.5z"/>
<path class="st0" d="M196.1,55.5h4.6v2.2c0,0.4,0,0.9-0.1,1.3h0.1c1.2-2.4,3.6-3.9,6.3-4c3,0,4.9,1.4,5.6,4h0.1c1.3-2.4,3.8-4,6.6-4
	c4,0,6.3,2.3,6.3,7.4v12.4h-4.8V63.3c0-2.2-0.4-3.9-2.7-3.9c-2.5,0-4.1,2-4.7,4.4c-0.2,0.8-0.3,1.7-0.2,2.5v8.5h-4.8V63.3
	c0-2.1-0.3-3.9-2.6-3.9c-2.5,0-4.1,2-4.7,4.4c-0.2,0.8-0.3,1.6-0.2,2.5v8.5h-4.8V55.5z"/>
<path class="st0" d="M229.4,55.5h4.8v19.3h-4.8V55.5z M229.4,47.9h4.8v4.3h-4.8V47.9z"/>
<path class="st0" d="M239,59.7h-2.5v-3.8h2.6v-5.6h4.7v5.6h4.4v3.8h-4.4v7.5c0,3.2,2.5,3.6,3.8,3.6c0.3,0,0.6,0,0.9-0.1v4.2
	c-0.5,0.1-1,0.1-1.5,0.1c-2.7,0-8-0.8-8-7.3L239,59.7z"/>
<g>
	<defs>
		<path id="SVGID_1_" d="M51,0h-0.2c-21,0.7-38.1,17.2-39.6,38.2c-0.1,0.9-0.1,1.8-0.1,2.7c0.4,22.8,19.2,41,42,40.6
			c15.7-0.3,30-9.4,36.7-23.7c9.2-20.8-0.1-45.1-20.9-54.3C63.6,1.2,57.9,0,52.1,0H51"/>
	</defs>
	<clipPath id="SVGID_00000151505070597758630580000009715025312479839146_">
		<use xlink:href="#SVGID_1_"  style="overflow:visible;"/>
	</clipPath>
	<g style="clip-path:url(#SVGID_00000151505070597758630580000009715025312479839146_);">
		
			<radialGradient id="SVGID_00000046308409166228715470000016954585866333754286_" cx="-1185.4146" cy="573.2857" r="1.46" gradientTransform="matrix(55.43 0 0 -55.43 65684.0234 31818.4102)" gradientUnits="userSpaceOnUse">
			<stop  offset="0" style="stop-color:#FFFFFF"/>
			<stop  offset="1.000000e-02" style="stop-color:#FFFFFF"/>
			<stop  offset="6.000000e-02" style="stop-color:#FAFCF6"/>
			<stop  offset="0.15" style="stop-color:#EDF2DD"/>
			<stop  offset="0.26" style="stop-color:#D7E3B5"/>
			<stop  offset="0.39" style="stop-color:#B9CE7D"/>
			<stop  offset="0.54" style="stop-color:#93B436"/>
			<stop  offset="0.57" style="stop-color:#8AAE26"/>
			<stop  offset="0.64" style="stop-color:#81AB27"/>
			<stop  offset="0.75" style="stop-color:#68A32B"/>
			<stop  offset="0.88" style="stop-color:#419631"/>
			<stop  offset="0.99" style="stop-color:#1C8A37"/>
			<stop  offset="1" style="stop-color:#1C8A37"/>
		</radialGradient>
		<rect x="11.1" style="fill:url(#SVGID_00000046308409166228715470000016954585866333754286_);" width="82.2" height="81.5"/>
	</g>
</g>
<g>
	<defs>
		<path id="SVGID_00000076588322601197500550000009778869616487904387_" d="M32.3,5.1c-19.9,11-27.1,36-16.2,55.9
			c1.9,3.5,4.3,6.7,7.2,9.5H81c16.2-15.9,16.4-41.9,0.5-58.1c-2.8-2.9-6-5.3-9.5-7.2H32.3z"/>
	</defs>
	<clipPath id="SVGID_00000070096053944098273120000011625573974833746348_">
		<use xlink:href="#SVGID_00000076588322601197500550000009778869616487904387_"  style="overflow:visible;"/>
	</clipPath>
	<g style="clip-path:url(#SVGID_00000070096053944098273120000011625573974833746348_);">
		<polygon class="st4" points="1.4,68.1 27,22 58.5,68.4 72.3,53.4 98.7,69 52.2,6.6 19,69.4 8.1,64.4 		"/>
	</g>
</g>
<polygon class="st0" points="52.1,6.5 37.2,36 37.2,36.4 44.2,28.6 48.2,39.9 54.2,28.7 59.2,38.3 64.1,28.6 74,36.7 75,36.2 "/>
</svg>
